<svg xmlns="http://www.w3.org/2000/svg" viewBox="0 0 200 200">
  <title>Asset 3</title>
  <g id="44da9b7a-1607-4561-8557-aebe1581856c" data-name="Layer 2">
    <g id="24050bdc-2642-4588-a1fa-27ee6f807b21" data-name="Layer 1">
      <circle cx="101.33" cy="100" r="92.78" fill="#fff" stroke="#000" stroke-miterlimit="10"/>
      <path d="M100,0A100,100,0,1,0,200,100,100.09,100.09,0,0,0,100,0Zm0,12.5A87.5,87.5,0,1,1,12.5,100,87.41,87.41,0,0,1,100,12.5Z" fill="#770693"/>
      <path d="M67.16,34.35a24,24,0,0,0-24,24c0,18.6,24,41.65,24,41.65s24-23.12,24-41.65A24,24,0,0,0,67.16,34.35Zm0,35A10.94,10.94,0,1,1,78.1,58.42,10.93,10.93,0,0,1,67.16,69.36Z"/>
      <path d="M69.36,160.28a27.51,27.51,0,0,1-15.62-4.84l-10.17,1.25a1.81,1.81,0,0,1-2.11-2.55l3-9.46a27.64,27.64,0,1,1,24.89,15.6ZM86.75,128l-9-3.23-3.47-9.12a2,2,0,0,0-3.54-.74l-6.89,7-9.14-.63a2,2,0,0,0-2.16,2.91l3.87,10.22-2.93,9.18a2,2,0,0,0,2.31,2.79l10.67-1.31,9.26,5.48a2,2,0,0,0,3.24-1.63l1-9.59,7.64-7.82A2,2,0,0,0,86.75,128Z"/>
    </g>
  </g>
</svg>
